<?xml version="1.0" encoding="utf-8"?>
<!-- Generator: Adobe Illustrator 14.0.0, SVG Export Plug-In . SVG Version: 6.00 Build 43363)  -->
<!DOCTYPE svg PUBLIC "-//W3C//DTD SVG 1.1//EN" "http://www.w3.org/Graphics/SVG/1.1/DTD/svg11.dtd">
<svg version="1.1" id="Layer_1" xmlns="http://www.w3.org/2000/svg" xmlns:xlink="http://www.w3.org/1999/xlink" x="0px" y="0px"
	 width="320px" height="80px" viewBox="0 0 320 80" enable-background="new 0 0 320 80" xml:space="preserve">
<polygon fill="#69B332" points="243.249,27.608 250.05,23.682 240.893,7.819 231.822,7.819 "/>
<polygon fill="#00B2DB" points="254.98,23.683 261.783,27.609 273.211,7.819 264.143,7.819 "/>
<path fill="#0B682F" d="M248.486,20.976c-1.741-2.989-4.664-4.529-6.536-3.446c-1.866,1.084-1.984,4.378-0.265,7.371l0,0
	l7.029,12.178l6.801-3.928L248.486,20.976L248.486,20.976z"/>
<path fill="#065879" d="M263.346,24.901c1.719-3,1.592-6.301-0.283-7.382c-1.873-1.075-4.785,0.47-6.517,3.455l0,0l-7.03,12.18
	l6.801,3.924L263.346,24.901L263.346,24.901z"/>
<path fill="#78216B" d="M7.665,19.67c6.307-1.647,12.616-3.284,18.918-4.951c0.917-0.243,1.357-0.208,1.484,0.962
	c0.183,1.703,0.633,3.381,1.034,5.052c0.362,1.524,1.097,1.939,2.642,1.563c1.874-0.458,3.75-0.917,5.612-1.424
	c1.887-0.514,2.187-1.051,1.701-2.921c-0.456-1.767-0.872-3.548-1.451-5.273c-0.238-0.708,0.004-0.789,0.526-0.923
	c6.062-1.566,12.119-3.135,18.173-4.72c0.508-0.133,0.889-0.147,1.187,0.384c1.512,2.724,3.046,5.438,4.608,8.22
	c-3.694,0.178-6.979,1.394-10.318,2.323c-1.642,0.457-2.03,1.592-1.398,3.169c0.68,1.693,1.345,3.394,2.091,5.059
	c0.586,1.308,0.208,2.134-1.112,2.52c-1.55,0.453-3.115,0.865-4.69,1.228c-1.308,0.305-2.221-0.142-2.628-1.522
	c-0.488-1.649-1.049-3.275-1.589-4.911c-0.637-1.931-1.705-2.655-3.651-2.21c-2.642,0.601-5.269,1.294-7.865,2.066
	c-1.947,0.58-2.491,1.688-2.085,3.711c0.328,1.635,0.662,3.271,0.974,4.909c0.315,1.654-0.06,2.299-1.698,2.781
	c-1.45,0.426-2.91,0.831-4.385,1.153c-1.56,0.337-2.123-0.088-2.33-1.639c-0.232-1.758-0.42-3.52-0.646-5.281
	c-0.253-1.983-1.169-2.723-3.09-2.205c-3.206,0.869-6.569,1.242-9.547,2.879c-0.122,0.068-0.309,0.021-0.464,0.028V19.67H7.665z"/>
<path fill="#78216B" d="M53.709,62.738c1.137-2.024,0.796-3.926,0.174-5.863c-1.165-3.628-2.277-7.27-3.387-10.906
	c-0.526-1.723-0.077-2.544,1.674-3.016c2.166-0.584,4.355-1.077,6.522-1.653c3.135-0.838,4.042-2.723,2.74-5.624
	c-0.938-2.094-1.906-4.175-2.842-6.272c-0.683-1.533-0.399-2.147,1.243-2.635c1.2-0.354,2.417-0.648,3.628-0.964
	c1.205-0.313,2.451-0.525,3.322-1.799c2.175,3.804,4.244,7.416,6.308,11.036c3.516,6.163,7.022,12.327,10.55,18.487
	c0.422,0.734,0.68,1.211-0.481,1.518c-9.633,2.537-19.254,5.12-28.878,7.691C54.188,62.766,54.084,62.738,53.709,62.738"/>
<path fill="#78216B" d="M38.674,67.161c-6.251,1.655-12.142,3.224-18.034,4.784c-3.679,0.971-7.37,1.895-11.032,2.923
	c-1.1,0.315-1.328,0.014-1.332-1.034c-0.065-10.952-0.158-21.9-0.273-32.855c-0.009-0.942,0.093-1.364,1.255-1.287
	c1.678,0.111,3.246-0.682,4.864-1.055c2.003-0.462,2.514-0.132,2.702,1.943c0.208,2.285,0.392,4.57,0.558,6.855
	c0.195,2.67,1.979,4.049,4.605,3.404c2.631-0.646,5.23-1.425,7.847-2.136c2.337-0.64,2.995-0.237,3.39,2.176
	c0.569,3.497,1.153,6.995,1.608,10.515C35.146,63.816,36.026,65.803,38.674,67.161"/>
<path fill="#78216B" d="M43.119,32.176c1.319,2.046,1.814,4.404,2.297,6.72c0.244,1.163-0.709,2.038-1.861,2.36
	c-2.399,0.676-4.802,1.354-7.236,1.881c-1.932,0.418-2.913-0.31-3.296-2.291c-0.375-1.924-1.116-3.798-0.884-5.813
	c-0.19-1.13,0.394-1.797,1.378-2.144c2.465-0.866,5.012-1.438,7.571-1.939C42.073,30.754,42.833,31.12,43.119,32.176"/>
<path fill="#CECECE" d="M43.119,32.176c-0.962-0.563-1.949-0.578-3.015-0.277c-1.758,0.497-3.535,0.924-5.31,1.355
	c-1.11,0.271-2.041,0.78-2.656,1.777c-1.749-2.269-1.807-5.037-2.132-7.686c-0.142-1.149,0.877-1.894,1.907-2.196
	c2.342-0.691,4.714-1.287,7.091-1.848c0.986-0.234,2.097,0.068,2.438,0.971C42.401,26.803,43.889,29.265,43.119,32.176"/>
<path fill="#78216B" d="M142.845,28.35v23.145c-3.046,1.496-5.9,2.585-8.559,3.261c-2.662,0.678-5.562,1.018-8.706,1.018
	c-5.272,0-9.576-1.043-12.913-3.121c-3.337-2.073-5.779-4.918-7.327-8.523c-1.547-3.604-2.32-7.822-2.32-12.659
	c0-5.658,1.026-10.325,3.083-14c2.053-3.677,4.799-6.359,8.233-8.054c3.433-1.692,7.277-2.538,11.534-2.538
	c5.948,0,11.219,1.451,15.814,4.352l-3.49,6.094c-3.636-2.32-7.563-3.479-11.78-3.479c-5.091,0-8.835,1.522-11.236,4.568
	c-2.4,3.047-3.599,7.279-3.599,12.694c0,5.756,1.128,10.12,3.384,13.095c2.255,2.974,5.906,4.463,10.953,4.463
	c2.958,0,5.845-0.509,8.658-1.524V35.167h-11.171l0.943-6.817H142.845z"/>
<path fill="#78216B" d="M188.325,54.316v0.513h-9.358l-12.691-17.778h-5.656v17.778h-8.27V7.819h15.523
	c3.87,0,7.12,0.604,9.756,1.813c2.642,1.209,4.615,2.877,5.948,5.006c1.33,2.128,1.994,4.594,1.994,7.398
	c0,3.336-0.907,6.25-2.721,8.741c-1.813,2.491-4.465,4.244-7.943,5.261L188.325,54.316z M160.617,30.524h6.236
	c3.291,0,5.805-0.688,7.543-2.066c1.744-1.38,2.61-3.422,2.61-6.13c0-2.514-0.782-4.426-2.354-5.732
	c-1.573-1.303-3.859-1.956-6.858-1.956h-7.179L160.617,30.524L160.617,30.524z"/>
<polygon fill="#78216B" points="203.416,47.934 225.831,47.934 225.831,54.829 195.146,54.829 195.146,7.819 225.465,7.819 
	225.465,14.639 203.416,14.639 203.416,27.549 222.566,27.549 221.625,34.224 203.416,34.224 "/>
<path fill="#78216B" d="M283.01,52.661c-3.281-2.009-5.705-4.826-7.248-8.454c-1.55-3.626-2.322-7.881-2.322-12.768
	c0-5.803,1-10.542,3.013-14.217c2.005-3.674,4.649-6.334,7.94-7.98c3.289-1.642,6.938-2.465,10.957-2.465
	c2.948,0,5.666,0.364,8.158,1.089c2.487,0.725,4.922,1.788,7.29,3.191l-3.356,6.166c-3.784-2.273-7.7-3.409-11.737-3.409
	c-4.711,0-8.179,1.512-10.39,4.535c-2.213,3.022-3.316,7.241-3.316,12.656c0,5.563,1.218,9.879,3.646,12.951
	c2.431,3.071,5.931,4.606,10.502,4.606c2.334,0,4.396-0.305,6.193-0.906c1.797-0.607,3.646-1.461,5.543-2.575l3.279,5.946
	c-2.609,1.548-5.139,2.713-7.585,3.484c-2.438,0.772-5.106,1.161-8.017,1.161C290.482,55.673,286.301,54.666,283.01,52.661"/>
<path fill="#A71924" d="M256.717,34.204c0-3.445-1.902-6.237-4.251-6.237c-2.347,0-4.249,2.792-4.249,6.237l0,0v17h8.5V34.204
	L256.717,34.204z"/>
<path fill="#E95D0C" d="M256.717,47.213c0-3.445-1.902-6.238-4.251-6.238c-2.347,0-4.249,2.793-4.249,6.238v7.616h8.5V47.213z"/>
<g>
	<path fill="#78216B" d="M95.256,70.16h3.67v0.901h-4.731v-7.479h4.678v0.902h-3.617v2.333h3.183l-0.106,0.87h-3.055L95.256,70.16z"
		/>
	<path fill="#78216B" d="M100.422,71.062v-7.936l0.987-0.116v8.052H100.422z"/>
	<path fill="#78216B" d="M107.254,68.706h-3.511c-0.035,0.459,0.114,0.913,0.413,1.263c0.29,0.264,0.67,0.404,1.061,0.393
		c0.27,0.004,0.539-0.036,0.796-0.117c0.264-0.098,0.52-0.219,0.764-0.36l0.382,0.7c-0.586,0.396-1.276,0.61-1.984,0.615
		c-0.648,0.035-1.285-0.186-1.771-0.615c-0.49-0.531-0.732-1.243-0.668-1.963c-0.004-0.474,0.09-0.943,0.276-1.379
		c0.36-0.848,1.201-1.39,2.121-1.368c0.396-0.014,0.787,0.078,1.135,0.266c0.305,0.174,0.556,0.431,0.722,0.742
		c0.158,0.331,0.238,0.693,0.233,1.061L107.254,68.706z M104.242,66.998c-0.241,0.279-0.396,0.621-0.446,0.986h2.514l0,0
		c0.028-0.348-0.079-0.693-0.297-0.965c-0.214-0.226-0.517-0.346-0.828-0.329C104.842,66.658,104.5,66.771,104.242,66.998
		L104.242,66.998z"/>
	<path fill="#78216B" d="M108.846,70.594c-0.473-0.526-0.707-1.225-0.647-1.93c0.002-0.547,0.144-1.084,0.414-1.561
		c0.22-0.392,0.553-0.71,0.955-0.911c0.386-0.19,0.811-0.288,1.241-0.287c0.559,0.01,1.105,0.159,1.591,0.435l-0.372,0.764
		c-0.223-0.117-0.457-0.209-0.7-0.274c-0.197-0.056-0.4-0.085-0.604-0.085c-0.417-0.018-0.814,0.173-1.061,0.509
		c-0.277,0.428-0.411,0.933-0.382,1.442c-0.046,0.464,0.095,0.926,0.393,1.284c0.281,0.275,0.667,0.419,1.061,0.393
		c0.242,0.006,0.483-0.032,0.71-0.117c0.241-0.095,0.476-0.21,0.7-0.339l0.393,0.699c-0.274,0.184-0.57,0.333-0.881,0.446
		c-0.339,0.122-0.699,0.181-1.061,0.169C109.951,71.259,109.322,71.03,108.846,70.594z"/>
	<path fill="#78216B" d="M116.749,70.881c-0.388,0.21-0.821,0.318-1.262,0.318c-0.419,0.022-0.829-0.127-1.135-0.414
		c-0.3-0.333-0.449-0.773-0.414-1.22v-2.769h-1.061v-0.753h1.061v-1.178l0.986-0.16v1.338h1.708l-0.096,0.785h-1.56v2.599
		c0,0.646,0.244,0.977,0.721,0.977c0.134,0.016,0.27,0.016,0.403,0c0.146-0.034,0.289-0.085,0.424-0.149L116.749,70.881z"/>
	<path fill="#78216B" d="M120.673,65.895l0.34,0.064l-0.181,1.061c-0.227-0.087-0.468-0.133-0.71-0.138
		c-0.24-0.003-0.476,0.051-0.69,0.159c-0.247,0.152-0.451,0.363-0.595,0.615v3.437h-0.997v-5.049l0.997-0.107v0.722
		c0.179-0.231,0.407-0.42,0.669-0.551c0.25-0.127,0.526-0.192,0.806-0.191C120.432,65.898,120.553,65.891,120.673,65.895z"/>
	<path fill="#78216B" d="M122.551,70.85c-0.36-0.234-0.641-0.569-0.806-0.966c-0.183-0.43-0.274-0.892-0.265-1.358
		c-0.021-0.527,0.1-1.052,0.35-1.517c0.208-0.384,0.535-0.689,0.934-0.869c0.421-0.185,0.877-0.275,1.337-0.266
		c0.474-0.019,0.942,0.104,1.347,0.35c0.354,0.23,0.634,0.558,0.806,0.943c0.185,0.433,0.275,0.899,0.266,1.369
		c0.02,0.53-0.097,1.057-0.34,1.528c-0.219,0.376-0.548,0.676-0.944,0.858c-0.42,0.188-0.876,0.282-1.336,0.276
		C123.425,71.215,122.958,71.094,122.551,70.85z M125.479,68.525c0.025-0.476-0.101-0.947-0.361-1.347
		c-0.251-0.329-0.647-0.516-1.061-0.498c-0.443-0.042-0.877,0.141-1.156,0.486c-0.256,0.406-0.378,0.881-0.351,1.358
		c-0.027,0.481,0.104,0.958,0.371,1.358c0.25,0.333,0.646,0.522,1.061,0.509C124.98,70.393,125.479,69.767,125.479,68.525z"/>
	<path fill="#78216B" d="M132.227,67.476v3.586h-0.987v-3.183c0.006-0.227-0.022-0.451-0.085-0.669
		c-0.05-0.147-0.157-0.27-0.297-0.34c-0.168-0.082-0.354-0.118-0.541-0.105c-0.25,0.003-0.5,0.035-0.743,0.096
		c-0.251,0.068-0.495,0.157-0.732,0.266v3.967h-0.997v-5.049l0.997-0.117v0.478c0.568-0.31,1.2-0.48,1.846-0.499
		C131.717,65.874,132.227,66.404,132.227,67.476z"/>
	<path fill="#78216B" d="M134.072,64.887c-0.103-0.068-0.19-0.159-0.255-0.265c-0.07-0.1-0.106-0.218-0.106-0.34
		c-0.004-0.128,0.033-0.255,0.106-0.36c0.065-0.105,0.152-0.196,0.255-0.266c0.216-0.127,0.484-0.127,0.7,0
		c0.109,0.066,0.199,0.157,0.265,0.266c0.065,0.108,0.099,0.234,0.096,0.36c0,0.12-0.033,0.237-0.096,0.34
		c-0.066,0.108-0.156,0.199-0.265,0.265C134.557,65.014,134.288,65.014,134.072,64.887z M133.934,71.062v-5.018l0.987-0.117v5.166
		L133.934,71.062z"/>
	<path fill="#78216B" d="M136.862,70.594c-0.469-0.527-0.699-1.227-0.636-1.93c-0.021-0.553,0.104-1.102,0.36-1.592
		c0.223-0.39,0.555-0.708,0.955-0.912c0.387-0.189,0.811-0.287,1.241-0.286c0.559,0.009,1.105,0.159,1.591,0.435l-0.372,0.764
		c-0.222-0.117-0.457-0.21-0.7-0.275c-0.197-0.056-0.4-0.084-0.604-0.085c-0.416-0.016-0.813,0.175-1.061,0.51
		c-0.277,0.427-0.411,0.933-0.381,1.442c-0.042,0.462,0.099,0.923,0.392,1.283c0.282,0.277,0.667,0.42,1.061,0.393
		c0.242,0.007,0.483-0.032,0.71-0.116c0.242-0.096,0.476-0.21,0.701-0.34l0.392,0.7c-0.274,0.184-0.57,0.333-0.88,0.445
		c-0.323,0.117-0.665,0.175-1.008,0.17C137.979,71.237,137.346,71.02,136.862,70.594z"/>
	<path fill="#78216B" d="M141.996,71.029c-0.36-0.107-0.698-0.279-0.997-0.509l0.435-0.711c0.504,0.383,1.117,0.595,1.75,0.604
		c0.277,0.016,0.553-0.047,0.796-0.181c0.275-0.189,0.345-0.565,0.156-0.841c-0.042-0.062-0.095-0.114-0.156-0.156
		c-0.262-0.182-0.558-0.308-0.87-0.371l-0.361-0.085c-0.431-0.087-0.834-0.276-1.177-0.552c-0.256-0.228-0.396-0.559-0.382-0.901
		c-0.002-0.274,0.083-0.542,0.244-0.764c0.179-0.226,0.413-0.4,0.68-0.509c0.309-0.128,0.641-0.189,0.976-0.181
		c0.336-0.005,0.671,0.034,0.997,0.116c0.343,0.092,0.671,0.231,0.976,0.414l-0.382,0.699c-0.262-0.146-0.54-0.264-0.827-0.35
		c-0.239-0.065-0.485-0.098-0.732-0.096c-0.23-0.011-0.458,0.044-0.658,0.159c-0.145,0.104-0.232,0.269-0.233,0.445
		c-0.004,0.151,0.068,0.295,0.191,0.382c0.208,0.118,0.434,0.204,0.668,0.255l0.35,0.096c0.369,0.087,0.725,0.219,1.061,0.394
		c0.238,0.117,0.439,0.297,0.584,0.519c0.123,0.224,0.186,0.478,0.18,0.732c0.007,0.289-0.074,0.574-0.233,0.817
		c-0.174,0.245-0.418,0.433-0.7,0.541c-0.356,0.146-0.74,0.214-1.125,0.201C142.796,71.205,142.388,71.147,141.996,71.029z"/>
	<path fill="#78216B" d="M152.827,66.276c0.325,0.337,0.487,0.798,0.446,1.263v3.522h-0.902l-0.063-0.436
		c-0.535,0.384-1.178,0.586-1.835,0.573c-0.268,0.007-0.534-0.052-0.774-0.17c-0.223-0.099-0.411-0.262-0.541-0.467
		c-0.127-0.212-0.193-0.454-0.191-0.7c-0.009-0.4,0.153-0.786,0.445-1.061c0.347-0.306,0.761-0.524,1.209-0.637
		c0.542-0.133,1.097-0.208,1.655-0.223v-0.244c0.024-0.27-0.046-0.541-0.202-0.764c-0.195-0.17-0.452-0.254-0.711-0.233
		c-0.63,0.023-1.239,0.233-1.75,0.604l-0.435-0.7c0.675-0.482,1.482-0.745,2.312-0.753C151.974,65.817,152.453,65.97,152.827,66.276
		z M150.208,70.201c0.151,0.117,0.34,0.174,0.53,0.16c0.546-0.008,1.08-0.169,1.538-0.467v-1.199
		c-0.554,0.011-1.103,0.115-1.623,0.308c-0.414,0.181-0.625,0.436-0.625,0.753C150.014,69.924,150.081,70.09,150.208,70.201
		L150.208,70.201z"/>
	<path fill="#78216B" d="M159.319,67.476v3.586h-0.986v-3.183c0.008-0.227-0.021-0.451-0.084-0.669
		c-0.051-0.145-0.152-0.266-0.287-0.34c-0.172-0.079-0.362-0.116-0.551-0.105c-0.251,0.003-0.5,0.035-0.743,0.096
		c-0.25,0.068-0.496,0.157-0.732,0.266v3.967h-0.998v-5.049l0.998-0.117v0.478c0.567-0.31,1.2-0.48,1.846-0.499
		C158.812,65.874,159.319,66.404,159.319,67.476z"/>
	<path fill="#78216B" d="M165.293,63.01v8.052h-0.902l-0.053-0.372c-0.264,0.157-0.545,0.281-0.839,0.372
		c-0.255,0.089-0.524,0.135-0.795,0.138c-0.404,0.009-0.801-0.099-1.146-0.308c-0.321-0.218-0.572-0.523-0.722-0.881
		c-0.17-0.425-0.252-0.879-0.244-1.337c-0.014-0.525,0.104-1.047,0.34-1.517c0.21-0.403,0.535-0.735,0.934-0.954
		c0.408-0.228,0.869-0.34,1.336-0.329c0.358,0.004,0.715,0.055,1.062,0.148v-2.896L165.293,63.01z M162.004,69.926
		c0.242,0.283,0.604,0.438,0.977,0.414c0.462-0.007,0.916-0.136,1.314-0.371v-3.183c-0.341-0.116-0.7-0.174-1.061-0.17
		c-0.293-0.008-0.583,0.066-0.838,0.213c-0.251,0.158-0.45,0.387-0.573,0.657c-0.15,0.355-0.222,0.738-0.212,1.124
		C161.577,69.083,161.718,69.55,162.004,69.926L162.004,69.926z"/>
	<path fill="#78216B" d="M171.138,70.722c-0.52-0.307-0.923-0.776-1.146-1.337c-0.269-0.645-0.398-1.339-0.382-2.037
		c-0.03-0.773,0.133-1.543,0.478-2.238c0.282-0.535,0.719-0.975,1.251-1.262c0.525-0.269,1.107-0.407,1.697-0.402
		c0.438-0.003,0.874,0.058,1.294,0.18c0.405,0.108,0.791,0.276,1.146,0.498l-0.467,0.817c-0.573-0.376-1.245-0.575-1.931-0.573
		c-0.682-0.053-1.344,0.243-1.761,0.785c-0.411,0.629-0.611,1.372-0.573,2.122c-0.043,0.776,0.165,1.546,0.594,2.195
		c0.428,0.536,1.088,0.832,1.772,0.796c0.358,0.003,0.716-0.047,1.06-0.148c0.328-0.112,0.644-0.254,0.944-0.425l0.425,0.765
		c-0.375,0.227-0.772,0.412-1.188,0.551c-0.421,0.123-0.857,0.184-1.295,0.18C172.387,71.216,171.721,71.055,171.138,70.722z"/>
	<path fill="#78216B" d="M177.291,70.85c-0.36-0.234-0.642-0.569-0.808-0.966c-0.178-0.431-0.269-0.892-0.265-1.358
		c-0.021-0.527,0.1-1.052,0.351-1.517c0.211-0.383,0.538-0.687,0.934-0.869c0.421-0.185,0.877-0.275,1.337-0.266
		c0.473-0.019,0.942,0.104,1.347,0.35c0.356,0.228,0.638,0.556,0.806,0.943c0.185,0.433,0.275,0.899,0.266,1.369
		c0.024,0.53-0.093,1.058-0.339,1.528c-0.217,0.374-0.542,0.674-0.934,0.858c-0.421,0.188-0.877,0.282-1.337,0.276
		C178.171,71.216,177.699,71.095,177.291,70.85z M180.229,68.525c0.021-0.477-0.108-0.948-0.372-1.347
		c-0.25-0.33-0.646-0.518-1.062-0.498c-0.445-0.044-0.883,0.139-1.166,0.486c-0.481,0.842-0.481,1.875,0,2.717
		c0.249,0.333,0.646,0.522,1.062,0.509C179.688,70.393,180.229,69.767,180.229,68.525L180.229,68.525z"/>
	<path fill="#78216B" d="M189.532,66.234c0.292,0.328,0.434,0.762,0.393,1.199v3.628h-0.996v-3.183
		c0.008-0.226-0.017-0.45-0.075-0.669c-0.039-0.141-0.13-0.263-0.255-0.34c-0.148-0.08-0.318-0.117-0.487-0.105
		c-0.236,0.002-0.472,0.034-0.701,0.096c-0.236,0.068-0.467,0.157-0.689,0.266c0,0.148,0,0.265,0,0.339v3.628h-0.997v-3.182
		c0.01-0.227-0.016-0.451-0.074-0.669c-0.029-0.143-0.118-0.266-0.243-0.34c-0.15-0.08-0.318-0.117-0.489-0.105
		c-0.229,0.003-0.457,0.035-0.678,0.096c-0.232,0.066-0.46,0.152-0.68,0.254v3.978h-0.997v-5.08l0.997-0.117v0.478
		c0.524-0.312,1.12-0.483,1.729-0.499c0.474-0.052,0.937,0.166,1.199,0.563c0.298-0.17,0.614-0.305,0.943-0.403
		c0.344-0.106,0.701-0.16,1.061-0.159C188.869,65.879,189.24,65.996,189.532,66.234z"/>
	<path fill="#78216B" d="M195.367,66.213c0.317,0.232,0.562,0.554,0.7,0.923c0.15,0.404,0.227,0.832,0.223,1.263
		c0.013,0.522-0.104,1.04-0.34,1.506c-0.207,0.406-0.527,0.741-0.923,0.966c-0.412,0.225-0.877,0.339-1.347,0.329
		c-0.359-0.004-0.716-0.054-1.061-0.148v2.121h-0.987v-7.128l0.987-0.117v0.445c0.264-0.143,0.54-0.26,0.827-0.35
		c0.247-0.077,0.504-0.117,0.763-0.117C194.619,65.889,195.021,65.995,195.367,66.213z M194.444,70.201
		c0.256-0.157,0.455-0.391,0.573-0.668c0.15-0.352,0.222-0.731,0.212-1.113c0.032-0.454-0.087-0.906-0.34-1.284
		c-0.248-0.282-0.612-0.435-0.986-0.414c-0.465,0.007-0.92,0.139-1.315,0.382v3.183c0.342,0.115,0.7,0.173,1.061,0.171
		C193.931,70.438,194.204,70.352,194.444,70.201z"/>
	<path fill="#78216B" d="M201.901,65.895v5.167h-0.891l-0.063-0.383c-0.539,0.335-1.159,0.515-1.793,0.521
		c-0.419,0.016-0.829-0.129-1.146-0.403c-0.318-0.314-0.48-0.753-0.445-1.199v-3.553l0.986-0.117v3.416
		c-0.009,0.206,0.024,0.411,0.096,0.604c0.054,0.141,0.16,0.254,0.297,0.318c0.186,0.072,0.384,0.105,0.583,0.096
		c0.486-0.034,0.958-0.18,1.379-0.425v-3.893L201.901,65.895z"/>
	<path fill="#78216B" d="M206.824,70.881c-0.392,0.21-0.829,0.318-1.273,0.318c-0.416,0.021-0.822-0.128-1.124-0.414
		c-0.299-0.333-0.448-0.773-0.414-1.22v-2.769h-1.061v-0.753h1.061v-1.178l0.987-0.16v1.338h1.708l-0.107,0.785H205v2.599
		c0,0.646,0.244,0.977,0.721,0.977c0.134,0.015,0.27,0.015,0.403,0c0.146-0.036,0.288-0.086,0.424-0.149L206.824,70.881z"/>
	<path fill="#78216B" d="M211.916,68.706h-3.512c-0.03,0.459,0.118,0.911,0.414,1.263c0.289,0.264,0.67,0.404,1.061,0.393
		c0.273,0.003,0.546-0.037,0.807-0.117c0.261-0.101,0.512-0.221,0.753-0.36l0.382,0.7c-0.585,0.396-1.276,0.61-1.983,0.615
		c-0.648,0.035-1.285-0.186-1.771-0.615c-0.49-0.531-0.733-1.243-0.668-1.963c-0.005-0.474,0.089-0.943,0.275-1.379
		c0.179-0.402,0.465-0.747,0.827-0.997c0.4-0.26,0.871-0.39,1.348-0.371c0.395-0.015,0.787,0.077,1.135,0.266
		c0.309,0.171,0.559,0.429,0.722,0.742c0.162,0.33,0.245,0.693,0.243,1.061L211.916,68.706z M208.903,66.998
		c-0.241,0.279-0.396,0.621-0.445,0.986h2.515l0,0c0.025-0.346-0.077-0.689-0.287-0.965c-0.217-0.229-0.523-0.35-0.838-0.329
		C209.505,66.661,209.163,66.772,208.903,66.998L208.903,66.998z"/>
	<path fill="#78216B" d="M216.096,65.895l0.35,0.064l-0.19,1.061c-0.227-0.089-0.468-0.135-0.711-0.138
		c-0.235-0.003-0.469,0.051-0.679,0.159c-0.252,0.148-0.461,0.361-0.604,0.615v3.437h-0.987v-5.049l0.987-0.107v0.722
		c0.178-0.231,0.406-0.42,0.668-0.551c0.25-0.126,0.526-0.191,0.807-0.191C215.854,65.897,215.976,65.891,216.096,65.895z"/>
	<path fill="#78216B" d="M221.155,70.976c-0.433-0.141-0.839-0.356-1.198-0.636l0.509-0.753c0.318,0.24,0.679,0.42,1.062,0.53
		c0.342,0.114,0.699,0.176,1.061,0.18c0.441,0.032,0.882-0.072,1.263-0.297c0.29-0.211,0.453-0.555,0.436-0.912
		c0.005-0.208-0.047-0.413-0.149-0.595c-0.137-0.174-0.311-0.314-0.509-0.413c-0.326-0.165-0.663-0.306-1.009-0.424l-0.201-0.064
		c-0.405-0.136-0.8-0.307-1.178-0.509c-0.289-0.154-0.536-0.376-0.721-0.647c-0.207-0.313-0.304-0.686-0.275-1.061
		c-0.004-0.383,0.119-0.756,0.35-1.061c0.245-0.297,0.563-0.523,0.923-0.658c0.396-0.15,0.817-0.227,1.241-0.223
		c0.441,0,0.88,0.061,1.305,0.181c0.433,0.116,0.842,0.307,1.21,0.563l-0.488,0.764c-0.303-0.201-0.631-0.357-0.976-0.468
		c-0.346-0.101-0.702-0.15-1.062-0.147c-0.371-0.023-0.74,0.065-1.062,0.255c-0.271,0.163-0.428,0.468-0.402,0.785
		c-0.003,0.171,0.041,0.339,0.128,0.487c0.123,0.164,0.283,0.298,0.466,0.393c0.294,0.15,0.599,0.278,0.913,0.381l0.201,0.075
		c0.42,0.14,0.831,0.307,1.23,0.498c0.312,0.167,0.582,0.398,0.796,0.68c0.237,0.337,0.356,0.744,0.339,1.155
		c0.014,0.419-0.105,0.83-0.339,1.179c-0.242,0.331-0.573,0.584-0.955,0.731c-0.473,0.171-0.972,0.253-1.475,0.243
		C222.104,71.19,221.62,71.119,221.155,70.976z"/>
	<path fill="#78216B" d="M227.097,70.594c-0.473-0.526-0.707-1.225-0.646-1.93c-0.018-0.555,0.11-1.103,0.37-1.592
		c0.221-0.393,0.553-0.711,0.955-0.912c0.387-0.189,0.811-0.287,1.241-0.286c0.559,0.009,1.105,0.159,1.591,0.435l-0.371,0.764
		c-0.222-0.117-0.457-0.21-0.699-0.275c-0.197-0.056-0.4-0.084-0.605-0.085c-0.416-0.018-0.813,0.174-1.061,0.51
		c-0.278,0.427-0.411,0.933-0.382,1.442c-0.046,0.463,0.096,0.925,0.393,1.283c0.281,0.277,0.667,0.42,1.062,0.393
		c0.241,0.007,0.482-0.032,0.71-0.116c0.241-0.096,0.476-0.21,0.699-0.34l0.393,0.7c-0.273,0.184-0.569,0.333-0.88,0.445
		c-0.34,0.124-0.7,0.181-1.061,0.17C228.179,71.224,227.567,71.007,227.097,70.594z"/>
	<path fill="#78216B" d="M231.944,64.887c-0.103-0.068-0.189-0.159-0.254-0.265c-0.07-0.1-0.107-0.218-0.107-0.34
		c-0.009-0.126,0.021-0.252,0.086-0.36c0.064-0.105,0.152-0.196,0.255-0.266c0.216-0.127,0.483-0.127,0.7,0
		c0.105,0.069,0.195,0.159,0.265,0.266c0.065,0.108,0.099,0.234,0.096,0.36c0,0.12-0.033,0.237-0.096,0.34
		c-0.069,0.105-0.159,0.196-0.265,0.265c-0.217,0.127-0.484,0.127-0.7,0H231.944z M231.807,71.062v-5.018l0.986-0.117v5.166
		L231.807,71.062z"/>
	<path fill="#78216B" d="M238.648,68.706h-3.521c-0.032,0.461,0.121,0.915,0.424,1.263c0.288,0.267,0.67,0.407,1.062,0.393
		c0.273,0.003,0.546-0.037,0.806-0.117c0.261-0.101,0.513-0.221,0.754-0.36l0.382,0.7c-0.585,0.397-1.276,0.612-1.984,0.615
		c-0.647,0.034-1.284-0.187-1.771-0.615c-0.489-0.531-0.732-1.243-0.668-1.963c-0.006-0.475,0.092-0.946,0.286-1.379
		c0.171-0.404,0.455-0.75,0.817-0.997c0.4-0.26,0.87-0.39,1.348-0.371c0.398-0.014,0.792,0.078,1.146,0.266
		c0.303,0.174,0.549,0.432,0.71,0.742c0.163,0.33,0.246,0.693,0.244,1.061L238.648,68.706z M235.626,66.998
		c-0.242,0.277-0.394,0.621-0.436,0.986h2.514l0,0c0.023-0.347-0.083-0.69-0.297-0.965c-0.216-0.229-0.522-0.35-0.838-0.329
		C236.227,66.661,235.886,66.772,235.626,66.998z"/>
	<path fill="#78216B" d="M244.398,67.476v3.586h-0.986v-3.183c0.01-0.228-0.022-0.453-0.096-0.669
		c-0.042-0.148-0.146-0.272-0.286-0.34c-0.168-0.079-0.354-0.116-0.541-0.105c-0.251,0.003-0.499,0.035-0.742,0.096
		c-0.255,0.068-0.503,0.157-0.743,0.266v3.967h-0.986v-5.049l0.986-0.117v0.478c0.567-0.31,1.199-0.48,1.847-0.499
		C243.868,65.874,244.398,66.404,244.398,67.476z"/>
	<path fill="#78216B" d="M246.298,70.594c-0.478-0.523-0.712-1.225-0.646-1.93c-0.024-0.555,0.104-1.105,0.37-1.592
		c0.22-0.389,0.548-0.707,0.945-0.912c0.386-0.189,0.811-0.287,1.24-0.286c0.559,0.009,1.105,0.159,1.591,0.435l-0.37,0.764
		c-0.221-0.116-0.451-0.208-0.689-0.275c-0.201-0.055-0.408-0.083-0.616-0.085c-0.416-0.016-0.813,0.175-1.061,0.51
		c-0.269,0.431-0.397,0.934-0.371,1.442c-0.045,0.461,0.093,0.921,0.382,1.283c0.281,0.277,0.667,0.42,1.061,0.393
		c0.242,0.007,0.484-0.032,0.711-0.116c0.241-0.096,0.475-0.21,0.7-0.34l0.393,0.7c-0.274,0.184-0.57,0.333-0.881,0.445
		c-0.34,0.124-0.7,0.182-1.062,0.17C247.372,71.224,246.764,71.007,246.298,70.594z"/>
	<path fill="#78216B" d="M255.113,68.706h-3.512c-0.029,0.459,0.118,0.911,0.414,1.263c0.289,0.264,0.67,0.404,1.061,0.393
		c0.273,0.003,0.546-0.037,0.807-0.117c0.26-0.101,0.512-0.221,0.753-0.36l0.382,0.7c-0.586,0.396-1.276,0.61-1.984,0.615
		c-0.647,0.035-1.284-0.186-1.771-0.615c-0.489-0.531-0.732-1.243-0.668-1.963c-0.004-0.474,0.091-0.943,0.276-1.379
		c0.179-0.402,0.465-0.747,0.827-0.997c0.4-0.261,0.871-0.392,1.348-0.371c0.395-0.015,0.787,0.077,1.135,0.266
		c0.308,0.171,0.559,0.429,0.721,0.742c0.163,0.33,0.246,0.693,0.245,1.061L255.113,68.706z M252.101,66.998
		c-0.24,0.279-0.396,0.621-0.446,0.986h2.515l0,0c0.026-0.346-0.076-0.689-0.286-0.965c-0.217-0.229-0.523-0.35-0.838-0.329
		C252.7,66.658,252.359,66.771,252.101,66.998z"/>
	<path fill="#78216B" d="M260.556,70.138h3.66v0.924h-4.732v-7.479h1.062L260.556,70.138z"/>
	<path fill="#78216B" d="M268.862,66.276c0.324,0.337,0.486,0.798,0.445,1.263v3.522h-0.902l-0.063-0.436
		c-0.53,0.383-1.171,0.584-1.824,0.573c-0.271,0.008-0.541-0.05-0.785-0.17c-0.224-0.099-0.411-0.262-0.541-0.467
		c-0.128-0.212-0.192-0.454-0.191-0.7c-0.01-0.403,0.156-0.791,0.456-1.061c0.349-0.31,0.768-0.528,1.221-0.637
		c0.541-0.133,1.097-0.208,1.654-0.223v-0.244c0.025-0.27-0.047-0.541-0.201-0.764c-0.194-0.174-0.452-0.258-0.711-0.233
		c-0.63,0.023-1.24,0.233-1.75,0.604l-0.436-0.7c0.676-0.482,1.482-0.745,2.313-0.753C268.022,65.823,268.492,65.975,268.862,66.276
		z M266.241,70.201c0.154,0.118,0.348,0.175,0.541,0.16c0.543-0.01,1.072-0.171,1.527-0.467v-1.199
		c-0.554,0.011-1.103,0.115-1.623,0.308c-0.413,0.181-0.626,0.436-0.626,0.753C266.048,69.924,266.115,70.09,266.241,70.201z"/>
	<path fill="#78216B" d="M274.78,66.203c0.305,0.227,0.537,0.535,0.669,0.891c0.154,0.413,0.229,0.853,0.224,1.295
		c0.024,0.572-0.128,1.139-0.436,1.622c-0.258,0.4-0.626,0.718-1.061,0.912c-0.431,0.181-0.892,0.274-1.358,0.276
		c-0.618-0.021-1.229-0.136-1.814-0.34v-7.733l0.998-0.116v3.31c0.519-0.291,1.103-0.444,1.696-0.445
		C274.086,65.864,274.465,65.979,274.78,66.203z M274.091,69.916c0.389-0.422,0.578-0.989,0.521-1.56
		c0.033-0.438-0.071-0.876-0.297-1.253c-0.216-0.288-0.563-0.448-0.923-0.423c-0.496,0.037-0.978,0.183-1.411,0.423v3.183
		c0.258,0.06,0.521,0.092,0.785,0.096c0.488,0.018,0.965-0.149,1.336-0.466H274.091z"/>
	<path fill="#78216B" d="M277.666,70.85c-0.359-0.234-0.641-0.569-0.806-0.966c-0.184-0.43-0.274-0.892-0.266-1.358
		c-0.02-0.526,0.098-1.049,0.34-1.517c0.217-0.381,0.547-0.685,0.944-0.869c0.421-0.185,0.877-0.275,1.337-0.266
		c0.474-0.017,0.94,0.105,1.348,0.35c0.354,0.23,0.633,0.558,0.806,0.943c0.185,0.433,0.274,0.899,0.265,1.369
		c0.021,0.531-0.1,1.059-0.35,1.528c-0.211,0.378-0.539,0.68-0.934,0.858c-0.42,0.188-0.877,0.282-1.337,0.276
		C278.54,71.217,278.072,71.095,277.666,70.85z M280.595,68.525c0.025-0.476-0.101-0.947-0.36-1.347
		c-0.252-0.329-0.647-0.516-1.062-0.498c-0.443-0.045-0.879,0.14-1.156,0.486c-0.475,0.844-0.475,1.874,0,2.717
		c0.263,0.346,0.681,0.537,1.113,0.509C280.096,70.393,280.595,69.767,280.595,68.525z"/>
	<path fill="#78216B" d="M285.771,65.895c0.118,0.011,0.235,0.033,0.35,0.064l-0.181,1.061c-0.23-0.088-0.475-0.134-0.721-0.138
		c-0.236-0.002-0.469,0.053-0.679,0.159c-0.247,0.152-0.45,0.363-0.594,0.615v3.437h-0.998v-5.049l0.998-0.107v0.722
		c0.178-0.231,0.406-0.42,0.667-0.551c0.25-0.127,0.526-0.192,0.808-0.191C285.537,65.898,285.654,65.891,285.771,65.895z"/>
	<path fill="#78216B" d="M290.45,66.276c0.323,0.337,0.486,0.798,0.444,1.263v3.522h-0.88l-0.054-0.436
		c-0.534,0.383-1.177,0.584-1.835,0.573c-0.271,0.007-0.541-0.052-0.784-0.17c-0.222-0.096-0.408-0.26-0.531-0.467
		c-0.126-0.212-0.192-0.454-0.19-0.7c-0.009-0.4,0.153-0.786,0.445-1.061c0.345-0.299,0.756-0.509,1.199-0.616
		c0.546-0.133,1.104-0.209,1.665-0.222V67.72c0.021-0.272-0.054-0.542-0.212-0.765c-0.19-0.172-0.444-0.256-0.7-0.233
		c-0.634,0.022-1.248,0.233-1.762,0.605l-0.435-0.701c0.681-0.48,1.49-0.742,2.324-0.752
		C289.615,65.841,290.08,65.984,290.45,66.276z M287.829,70.201c0.156,0.115,0.348,0.172,0.541,0.16
		c0.546-0.011,1.078-0.172,1.538-0.467v-1.199c-0.558,0.01-1.11,0.114-1.634,0.308c-0.414,0.181-0.614,0.436-0.614,0.753
		C287.644,69.924,287.707,70.088,287.829,70.201z"/>
	<path fill="#78216B" d="M295.584,70.881c-0.392,0.21-0.829,0.318-1.273,0.318c-0.419,0.022-0.828-0.127-1.135-0.414
		c-0.299-0.333-0.448-0.773-0.413-1.22v-2.769h-1.008v-0.753h1.008v-1.178l0.997-0.16v1.338h1.708l-0.106,0.785h-1.602v2.599
		c0,0.646,0.233,0.977,0.71,0.977c0.135,0.016,0.27,0.016,0.404,0c0.146-0.032,0.289-0.083,0.423-0.149L295.584,70.881z"/>
	<path fill="#78216B" d="M297.229,70.85c-0.36-0.234-0.642-0.569-0.807-0.966c-0.183-0.43-0.273-0.892-0.265-1.358
		c-0.022-0.527,0.099-1.052,0.35-1.517c0.207-0.384,0.535-0.689,0.934-0.869c0.421-0.185,0.877-0.275,1.336-0.266
		c0.475-0.019,0.943,0.104,1.348,0.35c0.354,0.23,0.635,0.558,0.807,0.943c0.184,0.433,0.274,0.899,0.266,1.369
		c0.019,0.53-0.099,1.057-0.34,1.528c-0.22,0.376-0.549,0.676-0.944,0.858c-0.42,0.188-0.876,0.282-1.337,0.276
		C298.102,71.215,297.634,71.094,297.229,70.85z M300.155,68.525c0.026-0.476-0.1-0.947-0.36-1.347
		c-0.251-0.329-0.646-0.516-1.061-0.498c-0.442-0.042-0.877,0.141-1.156,0.486c-0.255,0.406-0.378,0.881-0.35,1.358
		c-0.027,0.481,0.104,0.958,0.371,1.358c0.249,0.333,0.645,0.522,1.061,0.509C299.657,70.393,300.155,69.767,300.155,68.525z"/>
	<path fill="#78216B" d="M305.344,65.895c0.118,0.011,0.235,0.033,0.351,0.064l-0.181,1.061c-0.231-0.088-0.475-0.134-0.722-0.138
		c-0.235-0.002-0.469,0.053-0.68,0.159c-0.245,0.152-0.449,0.363-0.594,0.615v3.437h-0.996v-5.049l0.996-0.107v0.722
		c0.179-0.231,0.407-0.42,0.669-0.551c0.25-0.127,0.525-0.192,0.806-0.191C305.109,65.898,305.227,65.891,305.344,65.895z"/>
	<path fill="#78216B" d="M311.051,66.044L311.051,66.044l-1.931,5.304c-0.136,0.395-0.317,0.771-0.541,1.125
		c-0.166,0.248-0.387,0.455-0.647,0.604c-0.267,0.133-0.562,0.199-0.858,0.191c-0.344,0.001-0.685-0.056-1.009-0.169l0.266-0.765
		c0.212,0.07,0.435,0.105,0.658,0.106c0.153,0.004,0.304-0.025,0.445-0.086c0.146-0.072,0.273-0.178,0.371-0.307
		c0.147-0.213,0.265-0.445,0.351-0.689l0.138-0.371h-0.244l-1.962-4.943l0,0h1.06l1.188,3.182l0.127,0.351l0.181,0.541l0.298-0.892
		l1.061-3.182H311.051z"/>
</g>
</svg>
